<svg xmlns="http://www.w3.org/2000/svg" width="1200" height="760" viewBox="0 0 1200 760" role="img" aria-label="Restorative tooth care">
  <defs>
    <linearGradient id="bg" x1="0" x2="1" y1="0" y2="1"><stop offset="0" stop-color="#f7e7db"/><stop offset=".55" stop-color="#ffffff"/><stop offset="1" stop-color="#d9eee3"/></linearGradient>
    <radialGradient id="glow" cx="72%" cy="22%" r="60%"><stop offset="0" stop-color="#ffffff" stop-opacity=".95"/><stop offset="1" stop-color="#ffffff" stop-opacity="0"/></radialGradient>
    <filter id="shadow" x="-20%" y="-20%" width="140%" height="140%"><feDropShadow dx="0" dy="24" stdDeviation="28" flood-color="#123434" flood-opacity=".16"/></filter>
  </defs>
  <rect width="1200" height="760" rx="46" fill="url(#bg)"/>
  <rect width="1200" height="760" rx="46" fill="url(#glow)"/>
  <circle cx="1000" cy="120" r="156" fill="#fff" opacity=".42"/>
  <circle cx="164" cy="624" r="210" fill="#d9eee3" opacity=".45"/>
  <g opacity=".17" stroke="#0e5f5f" stroke-width="2" fill="none"><path d="M80 138h430M80 184h310M80 230h374"/><path d="M960 506c-68 34-132 34-200 0M940 554c-58 27-108 27-166 0"/></g>
  <g filter="url(#shadow)" transform="translate(150 126)">
    <rect x="0" y="0" width="470" height="520" rx="42" fill="#fff" opacity=".96"/>
    <circle cx="238" cy="158" r="92" fill="#f0c7aa"/>
    <path d="M139 160c18-92 175-108 202 0 19-43 11-100-27-134-42-38-113-43-161-12-50 32-65 94-14 146z" fill="#5d4238" opacity=".9"/>
    <path d="M128 373c16-80 75-124 109-124s94 44 110 124v147H128V373z" fill="#0e5f5f" opacity=".94"/>
    <path d="M187 188c24 32 76 32 100 0" stroke="#fff" stroke-width="12" stroke-linecap="round" fill="none"/>
    <path d="M209 188c13 7 43 7 56 0" stroke="#0e5f5f" stroke-width="3" stroke-linecap="round" fill="none" opacity=".65"/>
    <circle cx="205" cy="150" r="7" fill="#132323"/><circle cx="270" cy="150" r="7" fill="#132323"/>
    <path d="M420 96c35 42 35 94 0 136" stroke="#d9eee3" stroke-width="14" stroke-linecap="round" fill="none" opacity=".8"/>
  </g>
  <g transform="translate(662 145)"><rect x="0" y="0" width="180" height="146" rx="32" fill="#fff" opacity=".9"/><path d="M92 28c-28 0-44 22-41 54 2 27 18 50 41 50s39-23 41-50c3-32-13-54-41-54z" fill="#f8fbf7" stroke="#0e5f5f" stroke-width="5"/><path d="M62 77h60" stroke="#c78255" stroke-width="7" stroke-linecap="round"/><path d="M72 95h40" stroke="#bfe7d2" stroke-width="7" stroke-linecap="round"/></g>
  <g transform="translate(704 438)">
    <rect x="0" y="0" width="302" height="100" rx="28" fill="#fff" opacity=".86"/>
    <circle cx="52" cy="50" r="25" fill="#0e5f5f" opacity=".92"/>
    <path d="M40 51l9 9 17-22" stroke="#fff" stroke-width="6" stroke-linecap="round" stroke-linejoin="round" fill="none"/>
    <rect x="94" y="31" width="164" height="12" rx="6" fill="#0e5f5f" opacity=".55"/>
    <rect x="94" y="57" width="112" height="10" rx="5" fill="#c78255" opacity=".55"/>
  </g>
</svg>